<svg t="1724474465084" class="icon" viewBox="0 0 1024 1024" version="1.1" xmlns="http://www.w3.org/2000/svg" p-id="5792" width="200" height="200"><path d="M877.909333 366.762667c-4.471467-16.247467-8.942933-32.119467-13.175466-48.059734a9.079467 9.079467 0 0 0-6.0416-6.8608c-7.645867-2.935467-15.189333-6.144-22.7328-9.3184-1.194667-0.512-3.037867-0.682667-3.072-2.321066 0-1.604267 1.877333-1.774933 3.072-2.286934 7.236267-3.072 14.4384-6.2464 21.777066-8.840533a10.786133 10.786133 0 0 0 7.304534-8.3968c3.754667-14.1312 7.645867-28.2624 11.502933-42.3936a7.304533 7.304533 0 0 1 2.423467-4.778667c2.048 7.236267 3.925333 14.062933 5.802666 20.8896 2.696533 9.591467 5.393067 19.217067 7.953067 28.842667a6.8608 6.8608 0 0 0 4.608 4.949333c8.123733 3.208533 16.145067 6.485333 24.234667 9.796267 1.160533 0.512 3.003733 0.682667 2.901333 2.389333 0 1.3312-1.7408 1.4336-2.833067 1.877334-7.099733 2.8672-14.1312 6.075733-21.4016 8.4992-5.2224 1.774933-7.509333 5.12-8.738133 10.205866-3.618133 14.1312-7.5776 28.2624-11.434667 42.3936a4.437333 4.437333 0 0 1-2.1504 3.413334zM797.696 865.518933c-24.302933 10.581333-38.570667-4.369067-45.7728-20.48a5.2224 5.2224 0 0 1 0.955733-5.597866c29.218133-43.076267 40.96-91.136 39.594667-142.813867a175.377067 175.377067 0 0 0-3.345067-29.218133c-0.477867-2.389333-1.1264-4.437333 2.8672-3.447467 4.027733 1.024 6.997333-1.774933 9.386667-4.9152 8.942933-11.810133 19.933867-21.845333 32.426667-29.696 35.328-21.333333 74.069333 6.144 74.752 42.8032 1.160533 6.417067 0.273067 11.707733-4.9152 16.7936-8.533333 8.3968-13.073067 19.6608-18.500267 30.173867-9.386667 18.193067-17.476267 37.102933-27.2384 54.9888-11.639467 21.230933-23.7568 42.222933-38.263467 61.6448-7.3728 9.898667-13.994667 20.343467-21.947733 29.764266zM323.652267 108.544C266.513067 147.899733 226.030933 199.953067 202.410667 265.3184c-23.1424-22.528-20.753067-84.0704 4.369066-118.920533 31.061333-43.1104 83.7632-50.858667 116.872534-37.7856zM358.126933 88.337067c5.8368-25.8048 33.518933-59.938133 75.776-69.290667 40.413867-8.977067 81.169067 8.704 100.352 33.0752-61.8496-3.1744-120.285867 8.0896-176.128 36.181333zM141.038933 379.357867c1.6384-34.0992 14.1312-61.986133 44.714667-79.530667l1.774933-0.989867c1.365333-0.6144 2.935467-2.013867 4.232534-1.024 1.297067 0.9216 0.341333 2.833067 0 4.3008a386.901333 386.901333 0 0 0-6.382934 132.983467c0.9216 7.338667 2.6624 14.5408 3.925334 21.845333 0.2048 1.194667 1.3312 2.833067-0.238934 3.754667-1.092267 0.6144-2.2528-0.512-3.242666-1.058133-21.777067-12.049067-34.884267-30.856533-41.472-54.613334a94.754133 94.754133 0 0 1-3.310934-25.668266zM179.4048 531.2512a69.632 69.632 0 0 1 11.8784-37.9904c3.037867-4.471467 3.515733-4.437333 5.7344 0.2048 13.858133 28.637867 26.760533 57.617067 32.904533 89.156267 0.750933 3.8912 1.2288 7.816533 1.7408 11.741866 0.682667 5.290667 0.3072 5.597867-4.949333 4.096a62.088533 62.088533 0 0 1-31.812267-21.435733 71.5776 71.5776 0 0 1-15.496533-45.738667zM231.765333 652.731733c-0.4096 10.513067-0.273067 20.992 0.4096 31.470934 0.136533 1.399467 0.9216 3.310933-0.750933 4.232533-1.6384 0.887467-2.901333-0.512-4.164267-1.262933-16.622933-9.284267-22.152533-36.0448-11.093333-53.3504a32.6656 32.6656 0 0 1 12.834133-12.1856c3.208533-1.604267 4.164267-0.7168 4.096 2.798933-0.170667 9.4208 0 18.875733 0 28.228267l-1.365333 0.068266zM196.744533 696.866133c13.789867-0.238933 24.064 8.328533 26.2144 21.265067 1.7408 10.0352-3.4816 14.677333-12.834133 11.1616a134.178133 134.178133 0 0 1-30.139733-14.779733c-6.4512-4.437333-6.144-8.8064 0.580266-12.9024a30.993067 30.993067 0 0 1 16.1792-4.744534zM785.749333 651.264a276.48 276.48 0 0 0-13.141333-37.649067c7.406933 2.935467 11.5712 8.055467 15.5648 13.312 8.9088 11.707733 8.704 13.175467-2.423467 24.337067z" fill="#dbdbdb" p-id="5793"></path><path d="M451.106133 974.848c17.681067 30.4128 50.517333 40.7552 80.418134 25.122133 1.194667-3.037867-1.024-3.9936-3.140267-4.778666-9.045333-3.549867-14.336-10.752-17.988267-19.456a98.679467 98.679467 0 0 1-6.997333-36.283734 297.028267 297.028267 0 0 1 7.850667-71.645866c6.314667-28.330667 17.408-54.3744 36.1472-76.629334 10.410667-12.3904 22.528-22.766933 39.355733-24.8832 13.824-1.7408 29.9008 3.822933 34.952533 21.742934 1.706667 5.597867 2.594133 11.400533 2.628267 17.271466v0.750934c-0.068267 2.184533-0.136533 4.744533 3.515733 4.744533 1.9456-20.411733 1.262933-40.618667-3.8912-60.552533-8.635733-33.450667-31.402667-51.9168-65.570133-53.3504-24.439467-1.024-45.533867 8.055467-63.829333 23.552-18.295467 15.4624-30.958933 35.157333-40.96 56.763733-2.6624 5.8368-7.3728 7.645867-11.810134 5.563733-4.437333-2.048-5.700267-6.7584-3.1744-12.356266 5.393067-12.117333 11.946667-23.688533 19.626667-34.474667 3.8912-5.461333 3.9936-5.597867-1.877333-8.328533-18.568533-8.635733-37.205333-10.717867-55.944534-0.238934a8.021333 8.021333 0 0 1-11.264-2.491733c-2.491733-3.8912-1.4336-8.704 2.8672-11.639467 2.389333-1.706667 4.949333-3.072 7.645867-4.164266 23.552-8.942933 46.250667-6.621867 67.925333 5.870933 4.096 2.389333 6.2464 2.218667 9.728-1.160533 20.2752-19.8656 44.202667-32.085333 72.8064-33.655467 41.8816-2.321067 74.752 19.592533 87.7568 58.538667 5.051733 15.598933 7.611733 31.914667 7.509334 48.3328 0.238933 39.594667-7.918933 77.687467-20.957867 114.756266a17.544533 17.544533 0 0 1-0.580267 1.365334c-0.6144 1.4336-1.2288 2.8672-0.853333 4.778666 9.8304-2.833067 19.524267-6.212267 28.9792-10.171733 37.205333-15.428267 68.608-38.229333 90.897067-72.635733 21.162667-32.733867 30.856533-69.290667 33.211733-107.793067 3.754667-60.859733-16.930133-112.810667-58.026667-156.945067a4.949333 4.949333 0 0 0-6.621866-1.467733 235.52 235.52 0 0 1-36.898134 12.219733 244.4288 244.4288 0 0 1-34.747733 6.144c-5.802667 0.580267-10.0352-2.696533-10.513067-7.406933-0.443733-4.676267 2.730667-8.157867 8.465067-9.147733a24.712533 24.712533 0 0 1 1.501867-0.2048l0.512-0.068267a241.390933 241.390933 0 0 0 96.768-32.9728c36.113067-21.845333 63.726933-51.2 78.062933-91.818667 15.428267-43.690667 12.219733-84.6848-19.8656-120.661333a12.151467 12.151467 0 0 1-3.072-7.441067 210.7392 210.7392 0 0 0-2.286933-21.060266c-13.7216-78.574933-56.149333-137.3184-123.323734-177.664-62.2592-37.376-130.286933-47.035733-201.3184-37.0688a307.268267 307.268267 0 0 0-144.145066 59.733333A294.570667 294.570667 0 0 0 224.187733 255.658667c-15.701333 37.751467-23.313067 77.2096-24.849066 118.033066-1.501867 39.867733 3.515733 78.574933 16.725333 116.3264 2.935467 8.3968 6.3488 16.622933 9.728 24.849067 4.9152 11.8784 9.8304 23.7568 13.380267 36.181333 7.543467 26.453333 11.946667 53.009067 10.171733 80.554667-1.7408 27.886933-2.048 55.773867 2.935467 83.456a10.717867 10.717867 0 0 1-1.774934 8.328533 209.373867 209.373867 0 0 0-27.3408 55.842134c-1.8432 5.802667-6.075733 8.226133-10.786133 6.792533-4.7104-1.467733-6.656-6.007467-4.9152-11.810133a171.008 171.008 0 0 1 8.738133-23.1424c1.194667-2.594133 0.9216-3.413333-2.082133-3.959467-16.622933-2.9696-31.232-10.752-45.056-20.104533-6.9632-4.778667-11.093333-11.605333-10.274133-20.650667a3.549867 3.549867 0 0 0-2.321067-4.061867 94.1056 94.1056 0 0 0-8.977067-3.6864c-14.7456-4.5056-26.043733 1.365333-31.061333 16.0768-3.106133 9.557333-3.4816 19.797333-1.1264 29.5936 6.621867 31.607467 23.893333 57.1392 46.045867 79.701334 21.1968 21.6064 46.592 36.898133 74.1376 48.810666 8.3968 3.618133 16.110933 7.748267 21.2992 16.5888 5.154133 8.840533 12.5952 16.2816 20.445866 22.971734 42.1888 35.908267 91.306667 51.643733 146.090667 50.653866 3.4816-0.068267 3.413333-1.3312 2.491733-4.061866a274.193067 274.193067 0 0 1-4.7104-15.872c-2.1504-8.055467-0.341333-12.731733 4.949334-14.1312 5.256533-1.399467 9.0112 1.9456 11.0592 9.966933 3.003733 12.561067 7.714133 24.6784 13.994666 35.908267z m27.2384-303.991467a83.285333 83.285333 0 0 1-28.535466-5.461333 8.8064 8.8064 0 0 0-8.977067 1.058133c-8.3968 5.632-17.749333 9.659733-27.648 11.844267-6.0416 1.365333-10.581333-1.092267-11.605333-6.075733-1.024-5.0176 1.911467-8.704 7.850666-10.1376 9.728-2.184533 18.8416-6.4512 26.760534-12.458667 4.846933-3.720533 9.3184-3.925333 14.711466-1.672533 10.0352 4.539733 20.992 6.587733 31.9488 6.007466a35.191467 35.191467 0 0 0 25.088-12.8 35.976533 35.976533 0 0 0 7.953067-27.2384c-1.092267-9.693867 1.399467-12.629333 10.9568-12.765866 7.8848-0.170667 15.735467-0.8192 23.074133-3.925334 4.5056-1.911467 8.0896-4.642133 7.543467-10.3424-0.512-5.461333-4.642133-6.7584-8.8064-7.953066a61.474133 61.474133 0 0 0-15.2576-1.706667l-14.336-0.341333h-0.034133c-7.9872-0.170667-15.9744-0.341333-23.995734-0.6144-8.123733-0.238933-11.093333-3.959467-9.659733-11.946667 1.092267-4.881067 1.262933-9.9328 0.512-14.882133-0.682667-3.413333-2.184533-6.144-5.7344-7.2704-3.549867-1.092267-6.280533 0.580267-8.6016 3.140266-4.369067 5.12-7.5776 11.127467-9.352533 17.646934a12.3904 12.3904 0 0 1-7.406934 8.533333c-6.5536 2.696533-10.410667 8.328533-12.868266 14.677333a12.4928 12.4928 0 0 1-10.205867 8.260267c-13.550933 2.525867-27.170133 1.979733-40.789333 0.682667a9.3184 9.3184 0 0 1-4.7104-1.911467 97.348267 97.348267 0 0 1-19.729067-18.705067c-3.652267-4.846933-3.4816-9.659733 0.4096-12.8 3.8912-3.106133 8.874667-2.389333 12.424533 2.4576 8.157867 11.264 18.432 17.5104 32.6656 15.291734a12.868267 12.868267 0 0 1 3.072 0c7.509333 0.512 13.585067-0.955733 16.725334-9.079467a19.114667 19.114667 0 0 1 8.192-9.1136c5.3248-3.106133 8.157867-7.748267 10.478933-13.277867 2.696533-6.9632 7.168-13.038933 12.970667-17.646933a23.6544 23.6544 0 0 1 37.341866 11.0592 31.402667 31.402667 0 0 1 2.082134 13.2096c-0.375467 4.539733 1.536 5.461333 5.563733 5.461333 10.24 0 20.48 0.341333 30.685867 0.7168 7.714133 0.341333 15.291733 1.467733 22.186666 5.3248a24.6784 24.6784 0 0 1 12.868267 19.8656 25.053867 25.053867 0 0 1-9.557333 21.674667c-7.850667 6.144-17.066667 8.4992-26.7264 9.352533-3.652267 0.341333-5.12 1.365333-5.5296 5.461334-2.9696 29.252267-24.8832 48.708267-53.998934 48.401066z m42.3936-200.192c23.893333 7.9872 48.605867 10.4448 78.097067 9.966934a325.632 325.632 0 0 0 98.781867-19.2512c24.917333-8.977067 48.401067-20.6848 68.369066-38.536534 14.199467-12.6976 25.326933-27.4432 29.354667-46.6944 1.024-4.949333-1.194667-8.977067-5.4272-10.24-4.642133-1.365333-8.738133 0.9216-10.478933 5.802667a19.933867 19.933867 0 0 0-0.6144 1.979733c-2.286933 9.796267-6.9632 18.807467-13.585067 26.282667-12.117333 14.472533-27.374933 24.917333-44.032 33.109333a295.1168 295.1168 0 0 1-156.433067 29.696c-24.234667-1.979733-47.4112-8.123733-67.6864-22.562133-5.290667-3.754667-10.103467-3.413333-13.073066 0.853333-2.935467 4.266667-1.706667 8.942933 3.515733 12.731734 10.1376 7.304533 21.367467 12.970667 33.211733 16.861866z m-12.629333-102.468266c0-19.7632 14.882133-35.5328 33.655467-35.601067 19.114667 0 34.577067 16.042667 34.747733 35.976533 0.170667 19.968-14.9504 35.84-33.962667 35.84-19.012267 0-34.4064-16.247467-34.474666-36.215466z m245.930667-16.1792c4.437333-6.212267 6.7584-13.7216 6.621866-21.4016a38.673067 38.673067 0 0 0-11.1616-27.374934c-11.127467-11.1616-27.2384-9.728-36.2496 3.1744-10.752 15.291733-6.997333 39.355733 7.918934 50.5856 11.025067 8.328533 24.746667 6.212267 32.8704-4.983466z" fill="#dbdbdb" p-id="5794"></path><path d="M531.524267 1000.1408c-0.6144-0.546133-1.194667-1.365333-1.911467-1.6384-14.199467-4.471467-20.48-15.872-24.2688-29.047467-4.949333-17.066667-5.256533-34.542933-3.925333-52.224 1.604267-21.504 4.573867-42.8032 10.717866-63.419733 7.816533-26.350933 19.592533-50.688 39.1168-70.417067 9.489067-9.6256 20.138667-17.544533 34.065067-19.456 15.9744-2.218667 34.0992 4.266667 39.355733 24.746667 1.501867 5.12 2.2528 10.410667 2.218667 15.7696a12.1856 12.1856 0 0 0 0.955733 6.5536 279.074133 279.074133 0 0 1-8.669866 51.2c-8.192 32.426667-20.002133 63.214933-38.468267 91.136-12.219733 18.5344-26.794667 34.7136-46.3872 45.6704a25.326933 25.326933 0 0 1-2.798933 1.1264z" fill="#dbdbdb" p-id="5795"></path></svg>