<svg t="1711639145179" class="icon" viewBox="0 0 1024 1024" version="1.1" xmlns="http://www.w3.org/2000/svg" p-id="11273" width="32" height="32"><path d="M807.253 288.051c58.128-56.312 148.954-69.027 148.954-69.027s-5.45-69.027-92.642-98.091c-125.339-39.963-194.366 18.165-194.366 18.165S512.98 19.208 356.76 100.951 89.732 406.124 89.732 406.124c59.945 74.477 214.348 76.293 214.348 75.385-18.165 4.541-47.229 26.339-45.413 26.631-65.394-19.69-216.165 68.735-192.55 130.496 23.614 61.761 236.146 45.413 236.146 45.413s43.596 32.697 34.514 32.697c-114.44-9.083-132.605 50.862-132.605 52.679 29.064 0 203.449 47.229 203.449 47.229s29.064 125.339 56.312 127.155c27.248 1.817 50.862-45.413 50.862-47.229 34.514-34.514 25.431-107.174 21.798-110.807 16.349-9.082 92.642-32.697 225.247-172.568 132.605-139.87 50.863-321.521 45.413-325.154zM69.082 629.555c0-74.477 170.298-129.653 170.752-114.44-21.798 52.678 0 89.009 0 89.009l-34.514 30.881 47.229 1.816s27.248 38.147 29.064 39.963C161.042 687.91 72.488 663.387 69.082 629.555z m174.663-12.716v8.174h-7.266l7.266-8.174z m187.228 111.715c-1.816 5.45-19.073 10.899-19.073 10.899l-3.633-10.899c-0.001 0 24.522-5.449 22.706 0z" fill="#999999" p-id="11274"></path><path d="M370.622 130.015c-44.644 0-80.834 34.158-80.834 76.293s36.191 76.293 80.834 76.293 80.834-34.158 80.834-76.293-36.19-76.293-80.834-76.293z m0 130.789a54.219 54.219 0 0 1-30.125-9.098c0.052 0 0.101 0.015 0.153 0.015 10.534 0 19.073-8.539 19.073-19.073s-8.539-19.073-19.073-19.073c-9.768 0-17.728 7.37-18.848 16.837-3.599-7.275-5.675-15.437-5.675-24.103 0-30.097 24.398-54.495 54.495-54.495 1.757 0 3.489 0.1 5.203 0.263-10.653 5.636-17.919 16.819-17.919 29.71 0 18.56 15.046 33.605 33.605 33.605 14.773 0 27.292-9.546 31.796-22.796 1.14 4.389 1.809 8.968 1.809 13.714 0.001 30.095-24.397 54.494-54.494 54.494z" fill="#FFFFFF" p-id="11275"></path><path d="M350.64 448.755s25.431 16.349 69.027 0l-16.349-23.614-52.678 23.614zM455.998 390.627c-12.716 12.715-45.64 29.064-45.64 29.064s47.456 27.248 58.355 19.982c10.899-7.266-9.082-47.229-12.715-49.046zM495.961 359.747c-10.99 10.729-34.514 27.077-34.514 27.077l43.596 32.867c9.083-10.899-1.816-59.944-9.082-59.944zM516.056 330.796c-2.044 8.515-12.261 21.457-15.667 24.182 9.537 5.109 26.453 22.933 26.453 22.933 10.104-15.212-3.293-44.39-10.786-47.115z" fill="#FFFFFF" p-id="11276"></path><path d="M751.18 237.189c7.266-1.817 49.046 41.779 43.596 43.596 70.844-78.11 134.421-76.293 134.421-78.11-18.165-47.229-103.541-69.027-103.541-69.027-128.972-23.615-145.32 34.514-148.954 36.33-148.953-108.99-290.641-43.596-288.825-45.413 96.275 21.798 69.027 99.908 69.027 99.908s-12.716 78.11-101.725 67.211-74.477-110.807-74.477-110.807C191.693 253.538 109.95 402.491 109.95 402.491c9.083 14.532 108.99 49.046 141.688 50.862 192.55-3.633 297.907-199.816 301.54-199.816 40.871 67.211 30.689 136.921-10.899 172.568-44.504 38.147-170.747 40.871-170.747 40.871 18.16 48.138 148.041 28.156 148.041 28.156-4.541 65.394-149.862 87.192-155.311 87.192 150.77 67.211 276.109-69.759 277.926-71.576-9.083 66.126-103.541 107.906-105.358 107.906 10.899 52.678-90.825 141.688-128.972 134.421-92.642-39.963-156.22 1.817-156.22 1.817l85.376 23.615s89.009 9.083 92.642 45.413c3.633 36.33 34.514 79.926 38.147 79.926 89.009-65.394 43.596-123.523 43.596-123.523s168.935-67.211 263.393-249.77-30.878-291.547-23.612-293.364z m-42.868-54.495c-29.064-7.266-6.99-22.345 16.349-34.514 79.926-26.339 118.981 6.358 117.165 6.358-91.554-38.147-133.514 28.156-133.514 28.156z" fill="#D8D8D8" p-id="11277"></path><path d="M343.374 580.519c90.03-25.513 107.973-46.321 107.973-46.321s-83.56-51.77-128.064-52.679c-44.505-0.908-102.633 62.67-84.468 97.183C295.127 700.408 402.301 714.94 402.301 714.94c81.743-7.266 98.091-79.926 99.908-83.56-99.004 1.818-156.22-45.412-158.835-50.861z m-73.795 32.687c9.082-24.523 64.94-73.569 64.94-73.569-9.736-9.082-64.94-27.137-64.94-27.137 12.715-5.338 74.477 18.963 74.477 18.963 55.404-29.972 60.853-15.441 60.853-15.441-38.147 9.084-135.33 97.184-135.33 97.184z" fill="#FFFFFF" p-id="11278"></path><path d="M343.374 580.519c90.03-25.513 107.973-46.321 107.973-46.321s-83.56-51.77-128.064-52.679c-44.505-0.908-86.108 61.171-83.008 84.458 8.324 17.99 17.742 33.584 27.724 47.189 11.074-25.061 64.152-71.673 64.152-71.673-9.736-9.082-64.94-27.137-64.94-27.137 12.716-5.338 74.477 18.963 74.477 18.963 55.404-29.972 60.853-15.441 60.853-15.441-35.579 8.471-122.48 85.651-134.024 96.008 57.487 77.797 133.785 88.329 133.785 88.329 81.743-7.266 98.091-67.201 99.908-70.834-99.005 1.817-156.221-45.413-158.836-50.862z" fill="#FFFFFF" p-id="11279"></path></svg>