<svg t="1711638717307" class="icon" viewBox="0 0 1117 1024" version="1.1" xmlns="http://www.w3.org/2000/svg" p-id="1803" width="32" height="32"><path d="M399.895361 655.622844c-105.521036 0-142.391828-17.002716-171.187515-48.56904-21.312597-23.349134-46.887713-65.500715-47.598133-133.629983-0.805143-74.996661 37.746977-155.629319 105.757842-221.248438s157.642176-107.889102 245.99473-116.03525c90.862705-8.430316 185.27751 17.263204 265.815446 72.297065 77.956744 53.281492 131.072471 126.880994 145.754483 201.925016 4.238839 21.596765 15.439792 78.951331-15.392432 132.824841-30.311249 52.902602-88.210471 80.372171-350.94743 102.868801-75.162425 6.44114-132.990605 9.566988-178.196991 9.566988z m-161.857334-182.672637c0.520975 50.203006 18.092027 79.874877 32.726677 95.906687 22.354546 24.485806 58.822768 41.559564 302.567835 20.696899 256.082693-22.046698 291.059033-47.929663 306.451464-74.665131 20.318009-35.520995 12.361306-76.275416 8.95129-93.680704-23.159689-118.592762-181.441242-244.266042-350.6159-228.542081-75.778123 7.104199-152.929724 43.619782-211.799853 100.429693-56.833592 54.797055-89.015613 120.29777-88.376235 179.736234l-28.416796 0.284168z" p-id="1804" fill="#e6e6e6"></path><path d="M513.444142 276.921677c-27.872141 19.560228-23.870109 67.8451-18.518279 132.185462 5.257107 63.464178 9.046013 109.144177 39.523027 124.797096 35.307869 18.115707 83.995313-15.629238 130.977749-48.19015 42.83832-29.695552 77.743618-53.89719 76.606945-86.481783s-37.107599-53.802467-81.556204-80.206406c-49.018973-29.340342-111.796411-66.803151-147.033238-42.104219zM830.883433 716.387426a17.097439 17.097439 0 0 1-5.257107 25.00678 502.551036 502.551036 0 0 1-397.71674 43.501379 17.073758 17.073758 0 0 1-12.053458-16.339658v-0.852504a17.073758 17.073758 0 0 1 22.757118-16.126531 424.973183 424.973183 0 0 0 369.276263-39.807195 17.073758 17.073758 0 0 1 22.780798 4.333561z" p-id="1805" fill="#e6e6e6"></path><path d="M472.68972 868.725133c16.576464 4.451965 33.413416-11.319357 55.602197-32.110979 17.949943-16.860632 31.755769-29.837636 28.416796-40.778103-3.125848-10.135324-21.478362-13.071726-58.088667-18.541959-38.93101-5.801763-58.56228-8.501358-65.477034 1.231394-6.06225 8.548719-0.686739 21.644126 8.643442 44.495967 10.893105 26.569704 17.215842 42.033177 30.903266 45.70368zM806.13714 835.856372c15.866044-6.630586 19.512867-29.387703 24.343722-59.414784 3.907309-24.320041 6.914754-43.027765-2.368067-49.729393-8.667123-6.133292-24.9831 2.770638-57.283524 20.838984-34.384323 19.205018-51.552804 29.056174-51.05551 41.014909 0.426252 10.466853 12.669155 17.547372 34.029113 29.908677 24.793654 14.421524 39.26254 22.828159 52.334266 17.381607z" p-id="1806" fill="#e6e6e6"></path><path d="M1105.460724 485.500959c-12.029777-52.097459-41.204354-148.430398-101.353239-207.537333-0.781462-0.757781-1.705008-1.681327-2.817999-2.723277a604.022679 604.022679 0 0 1-71.04199-81.674607c-5.612317-7.767258-7.980384-11.43776-10.72734-15.723961-2.368066-3.788906-5.233427-8.098787-10.324769-15.392431-3.552099-5.115023-88.447277-125.507515-188.49808-157.926343A90.31805 90.31805 0 0 0 686.028816 0.260487c-21.312597 1.894453-36.373499 11.840332-46.295697 18.352514l-0.236807 0.142084c-24.391083 16.126532-40.517615 26.78283-44.99326 29.127216-6.275376 3.410016-8.311913 3.386335-22.259823 2.368067a309.198421 309.198421 0 0 0-47.83494-0.639378 279.597592 279.597592 0 0 0-63.772027 11.295676c-15.250347 4.309881-21.549404 6.08593-35.520995 2.960083h-0.260487l-2.51015-1.136672c-5.612317-2.533831-17.310565-7.790938-46.461462-19.63127-26.04873-10.585256-45.822083-18.186749-70.00004-25.646158-41.322757-12.763878-64.885017-16.576464-87.002757-4.380923-18.944531 10.537895-27.019637 27.635334-31.353198 36.799751C152.78764 123.352575 133.677344 163.87019 125.696961 230.933828c-0.142084 1.302436-0.284168 3.054806-0.402572 5.186066a66.305857 66.305857 0 0 1-3.623141 19.891757 64.529807 64.529807 0 0 1-14.066314 22.378227l-0.402571 0.449932c-29.174577 31.234795-78.382996 135.690201-95.717241 203.203772-33.721265 131.404001 17.002716 251.015031 22.899201 264.20516 65.429673 146.630667 208.247753 205.192947 262.002859 227.334368 81.366759 33.318693 176.72879 50.416132 273.416938 50.416132a799.032941 799.032941 0 0 0 185.230149-21.502042c76.843752-18.423556 146.820112-48.521679 202.635435-87.026438 61.924935-42.767278 106.160414-94.888418 131.475043-154.94258 50.108284-118.87693 19.915438-259.397986 16.315977-275.027223z m-79.401264 275.050904c-27.587973-62.11438-130.6699-98.843089-145.517676-83.308573-10.087963 10.561576 25.598797 40.115044 44.28284 120.179366a428.78577 428.78577 0 0 1 9.472266 64.861337c-51.150233 37.510171-116.556225 66.75579-192.40539 84.942539-142.08398 34.076474-300.60234 24.248999-423.883873-26.309217-6.559544-2.699596-14.208398-5.825443-22.733436-9.472265a390.730944 390.730944 0 0 1 8.785526-58.278113c18.684043-80.064323 54.465526-109.61779 44.259159-120.179366-17.168481-17.997304-152.740278 34.100155-152.290345 114.59073a69.97636 69.97636 0 0 0 0.592016 8.619761 366.150416 366.150416 0 0 1-57.85186-52.097459 357.578016 357.578016 0 0 1 22.070378-44.353882c40.115044-67.916142 81.272036-84.729413 75.067703-97.303846-9.259139-18.707724-116.840393-14.350482-158.84989 36.444541-13.048045-38.954691-32.182021-117.977065-10.466853-202.588075 17.073758-66.518983 63.298413-158.328915 82.195582-178.552201l0.284168-0.284168a122.736878 122.736878 0 0 0 26.04873-41.77269 120.771383 120.771383 0 0 0 6.962115-36.041969v-1.870773c6.891073-57.875541 23.680663-93.207091 56.833592-163.586022 2.699596-5.70704 4.736133-9.851156 7.577812-11.390399a0.852504 0.852504 0 0 1 0.236807 0c1.207714-0.331529 8.785526-1.255075 42.364707 9.117055 22.212462 6.867392 40.801783 13.995272 65.405992 23.988512 28.156309 11.461441 39.191498 16.43438 44.519647 18.826128a58.988532 58.988532 0 0 0 13.734784 4.736132c27.966863 6.228014 45.135344 1.397159 63.298413-3.741544a224.161159 224.161159 0 0 1 52.097459-9.472266 250.754544 250.754544 0 0 1 39.712473 0.592017c16.76591 1.42084 32.48987 2.557512 53.802467-8.951291 6.583224-3.552099 19.062934-11.840332 49.208418-31.708408l0.236807-0.165765c8.004064-5.280788 13.237491-8.548719 19.939118-9.140736a32.560912 32.560912 0 0 1 12.242903 1.705008c81.74565 26.40394 158.660444 135.263949 159.323503 136.353259 4.499326 6.44114 6.867392 10.135324 9.164417 13.687424 3.054806 4.736133 5.943846 9.235459 12.432348 18.21043a656.688474 656.688474 0 0 0 77.506811 89.205058l2.533831 2.368067c51.742249 50.818703 77.246324 142.652316 85.818724 179.783595a498.264836 498.264836 0 0 1 10.277407 83.095448c-42.033177-22.472949-101.092752-22.212462-107.344446-9.28282-5.280788 10.916786 29.813955 25.527755 63.937791 84.539968 16.576464 28.772006 22.046698 48.971612 27.919502 59.438465-2.368066 7.554132-5.115023 15.037221-8.217191 22.378227s-6.654266 14.966179-10.585256 22.188781z" p-id="1807" fill="#e6e6e6"></path></svg>